<svg aria-roledescription="flowchart-v2" role="graphics-document document" viewBox="0 0 1357.02734375 1494" style="max-width: 1357.03px; background-color: white;" class="flowchart" xmlns:xlink="http://www.w3.org/1999/xlink" xmlns="http://www.w3.org/2000/svg" width="100%" id="my-svg"><style>#my-svg{font-family:"trebuchet ms",verdana,arial,sans-serif;font-size:16px;fill:#333;}@keyframes edge-animation-frame{from{stroke-dashoffset:0;}}@keyframes dash{to{stroke-dashoffset:0;}}#my-svg .edge-animation-slow{stroke-dasharray:9,5!important;stroke-dashoffset:900;animation:dash 50s linear infinite;stroke-linecap:round;}#my-svg .edge-animation-fast{stroke-dasharray:9,5!important;stroke-dashoffset:900;animation:dash 20s linear infinite;stroke-linecap:round;}#my-svg .error-icon{fill:#552222;}#my-svg .error-text{fill:#552222;stroke:#552222;}#my-svg .edge-thickness-normal{stroke-width:1px;}#my-svg .edge-thickness-thick{stroke-width:3.5px;}#my-svg .edge-pattern-solid{stroke-dasharray:0;}#my-svg .edge-thickness-invisible{stroke-width:0;fill:none;}#my-svg .edge-pattern-dashed{stroke-dasharray:3;}#my-svg .edge-pattern-dotted{stroke-dasharray:2;}#my-svg .marker{fill:#333333;stroke:#333333;}#my-svg .marker.cross{stroke:#333333;}#my-svg svg{font-family:"trebuchet ms",verdana,arial,sans-serif;font-size:16px;}#my-svg p{margin:0;}#my-svg .label{font-family:"trebuchet ms",verdana,arial,sans-serif;color:#333;}#my-svg .cluster-label text{fill:#333;}#my-svg .cluster-label span{color:#333;}#my-svg .cluster-label span p{background-color:transparent;}#my-svg .label text,#my-svg span{fill:#333;color:#333;}#my-svg .node rect,#my-svg .node circle,#my-svg .node ellipse,#my-svg .node polygon,#my-svg .node path{fill:#ECECFF;stroke:#9370DB;stroke-width:1px;}#my-svg .rough-node .label text,#my-svg .node .label text,#my-svg .image-shape .label,#my-svg .icon-shape .label{text-anchor:middle;}#my-svg .node .katex path{fill:#000;stroke:#000;stroke-width:1px;}#my-svg .rough-node .label,#my-svg .node .label,#my-svg .image-shape .label,#my-svg .icon-shape .label{text-align:center;}#my-svg .node.clickable{cursor:pointer;}#my-svg .root .anchor path{fill:#333333!important;stroke-width:0;stroke:#333333;}#my-svg .arrowheadPath{fill:#333333;}#my-svg .edgePath .path{stroke:#333333;stroke-width:2.0px;}#my-svg .flowchart-link{stroke:#333333;fill:none;}#my-svg .edgeLabel{background-color:rgba(232,232,232, 0.8);text-align:center;}#my-svg .edgeLabel p{background-color:rgba(232,232,232, 0.8);}#my-svg .edgeLabel rect{opacity:0.5;background-color:rgba(232,232,232, 0.8);fill:rgba(232,232,232, 0.8);}#my-svg .labelBkg{background-color:rgba(232, 232, 232, 0.5);}#my-svg .cluster rect{fill:#ffffde;stroke:#aaaa33;stroke-width:1px;}#my-svg .cluster text{fill:#333;}#my-svg .cluster span{color:#333;}#my-svg div.mermaidTooltip{position:absolute;text-align:center;max-width:200px;padding:2px;font-family:"trebuchet ms",verdana,arial,sans-serif;font-size:12px;background:hsl(80, 100%, 96.2745098039%);border:1px solid #aaaa33;border-radius:2px;pointer-events:none;z-index:100;}#my-svg .flowchartTitleText{text-anchor:middle;font-size:18px;fill:#333;}#my-svg rect.text{fill:none;stroke-width:0;}#my-svg .icon-shape,#my-svg .image-shape{background-color:rgba(232,232,232, 0.8);text-align:center;}#my-svg .icon-shape p,#my-svg .image-shape p{background-color:rgba(232,232,232, 0.8);padding:2px;}#my-svg .icon-shape rect,#my-svg .image-shape rect{opacity:0.5;background-color:rgba(232,232,232, 0.8);fill:rgba(232,232,232, 0.8);}#my-svg .label-icon{display:inline-block;height:1em;overflow:visible;vertical-align:-0.125em;}#my-svg .node .label-icon path{fill:currentColor;stroke:revert;stroke-width:revert;}#my-svg :root{--mermaid-font-family:"trebuchet ms",verdana,arial,sans-serif;}#my-svg .input&gt;*{fill:#e1f5fe!important;}#my-svg .input span{fill:#e1f5fe!important;}#my-svg .process&gt;*{fill:#f3e5f5!important;}#my-svg .process span{fill:#f3e5f5!important;}#my-svg .output&gt;*{fill:#e8f5e8!important;}#my-svg .output span{fill:#e8f5e8!important;}#my-svg .pipeline&gt;*{fill:#fff3e0!important;}#my-svg .pipeline span{fill:#fff3e0!important;}</style><g><marker orient="auto" markerHeight="8" markerWidth="8" markerUnits="userSpaceOnUse" refY="5" refX="5" viewBox="0 0 10 10" class="marker flowchart-v2" id="my-svg_flowchart-v2-pointEnd"><path style="stroke-width: 1; stroke-dasharray: 1, 0;" class="arrowMarkerPath" d="M 0 0 L 10 5 L 0 10 z"/></marker><marker orient="auto" markerHeight="8" markerWidth="8" markerUnits="userSpaceOnUse" refY="5" refX="4.5" viewBox="0 0 10 10" class="marker flowchart-v2" id="my-svg_flowchart-v2-pointStart"><path style="stroke-width: 1; stroke-dasharray: 1, 0;" class="arrowMarkerPath" d="M 0 5 L 10 10 L 10 0 z"/></marker><marker orient="auto" markerHeight="11" markerWidth="11" markerUnits="userSpaceOnUse" refY="5" refX="11" viewBox="0 0 10 10" class="marker flowchart-v2" id="my-svg_flowchart-v2-circleEnd"><circle style="stroke-width: 1; stroke-dasharray: 1, 0;" class="arrowMarkerPath" r="5" cy="5" cx="5"/></marker><marker orient="auto" markerHeight="11" markerWidth="11" markerUnits="userSpaceOnUse" refY="5" refX="-1" viewBox="0 0 10 10" class="marker flowchart-v2" id="my-svg_flowchart-v2-circleStart"><circle style="stroke-width: 1; stroke-dasharray: 1, 0;" class="arrowMarkerPath" r="5" cy="5" cx="5"/></marker><marker orient="auto" markerHeight="11" markerWidth="11" markerUnits="userSpaceOnUse" refY="5.2" refX="12" viewBox="0 0 11 11" class="marker cross flowchart-v2" id="my-svg_flowchart-v2-crossEnd"><path style="stroke-width: 2; stroke-dasharray: 1, 0;" class="arrowMarkerPath" d="M 1,1 l 9,9 M 10,1 l -9,9"/></marker><marker orient="auto" markerHeight="11" markerWidth="11" markerUnits="userSpaceOnUse" refY="5.2" refX="-1" viewBox="0 0 11 11" class="marker cross flowchart-v2" id="my-svg_flowchart-v2-crossStart"><path style="stroke-width: 2; stroke-dasharray: 1, 0;" class="arrowMarkerPath" d="M 1,1 l 9,9 M 10,1 l -9,9"/></marker><g class="root"><g class="clusters"/><g class="edgePaths"><path marker-end="url(#my-svg_flowchart-v2-pointEnd)" style="" class="edge-thickness-normal edge-pattern-solid edge-thickness-normal edge-pattern-solid flowchart-link" id="L_A_B_0" d="M1041.648,62L1041.648,66.167C1041.648,70.333,1041.648,78.667,1041.648,86.333C1041.648,94,1041.648,101,1041.648,104.5L1041.648,108"/><path marker-end="url(#my-svg_flowchart-v2-pointEnd)" style="" class="edge-thickness-normal edge-pattern-solid edge-thickness-normal edge-pattern-solid flowchart-link" id="L_C_D_0" d="M1269.434,62L1269.434,66.167C1269.434,70.333,1269.434,78.667,1269.434,86.333C1269.434,94,1269.434,101,1269.434,104.5L1269.434,108"/><path marker-end="url(#my-svg_flowchart-v2-pointEnd)" style="" class="edge-thickness-normal edge-pattern-solid edge-thickness-normal edge-pattern-solid flowchart-link" id="L_E_F_0" d="M202.836,398L202.836,402.167C202.836,406.333,202.836,414.667,202.836,422.333C202.836,430,202.836,437,202.836,440.5L202.836,444"/><path marker-end="url(#my-svg_flowchart-v2-pointEnd)" style="" class="edge-thickness-normal edge-pattern-solid edge-thickness-normal edge-pattern-solid flowchart-link" id="L_B_G_0" d="M1041.648,166L1041.648,170.167C1041.648,174.333,1041.648,182.667,1042.324,190.345C1042.999,198.024,1044.35,205.048,1045.025,208.56L1045.701,212.072"/><path marker-end="url(#my-svg_flowchart-v2-pointEnd)" style="" class="edge-thickness-normal edge-pattern-solid edge-thickness-normal edge-pattern-solid flowchart-link" id="L_D_G_0" d="M1235.383,166L1230.129,170.167C1224.874,174.333,1214.365,182.667,1197.545,190.784C1180.725,198.902,1157.595,206.805,1146.029,210.756L1134.464,214.707"/><path marker-end="url(#my-svg_flowchart-v2-pointEnd)" style="" class="edge-thickness-normal edge-pattern-solid edge-thickness-normal edge-pattern-solid flowchart-link" id="L_G_H_0" d="M958.375,259.074L912.026,267.062C865.677,275.05,772.979,291.025,726.63,304.512C680.281,318,680.281,329,680.281,334.5L680.281,340"/><path marker-end="url(#my-svg_flowchart-v2-pointEnd)" style="" class="edge-thickness-normal edge-pattern-solid edge-thickness-normal edge-pattern-solid flowchart-link" id="L_H_I_0" d="M619.298,398L609.887,402.167C600.476,406.333,581.654,414.667,572.243,422.333C562.832,430,562.832,437,562.832,440.5L562.832,444"/><path marker-end="url(#my-svg_flowchart-v2-pointEnd)" style="" class="edge-thickness-normal edge-pattern-solid edge-thickness-normal edge-pattern-solid flowchart-link" id="L_I_J_0" d="M518.209,502L508.017,508.167C497.825,514.333,477.442,526.667,445.42,538.824C413.397,550.981,369.736,562.961,347.906,568.951L326.075,574.942"/><path marker-end="url(#my-svg_flowchart-v2-pointEnd)" style="" class="edge-thickness-normal edge-pattern-solid edge-thickness-normal edge-pattern-solid flowchart-link" id="L_F_J_0" d="M202.836,502L202.836,508.167C202.836,514.333,202.836,526.667,204.65,538.367C206.464,550.066,210.093,561.133,211.907,566.666L213.721,572.199"/><path marker-end="url(#my-svg_flowchart-v2-pointEnd)" style="" class="edge-thickness-normal edge-pattern-solid edge-thickness-normal edge-pattern-solid flowchart-link" id="L_J_K_0" d="M175.384,630L164.321,636.167C153.258,642.333,131.133,654.667,120.07,666.333C109.008,678,109.008,689,109.008,694.5L109.008,700"/><path marker-end="url(#my-svg_flowchart-v2-pointEnd)" style="" class="edge-thickness-normal edge-pattern-solid edge-thickness-normal edge-pattern-solid flowchart-link" id="L_G_L_0" d="M1051.648,270L1051.648,276.167C1051.648,282.333,1051.648,294.667,1051.648,311.5C1051.648,328.333,1051.648,349.667,1051.648,369C1051.648,388.333,1051.648,405.667,1051.648,423C1051.648,440.333,1051.648,457.667,1051.648,477C1051.648,496.333,1051.648,517.667,1051.648,539C1051.648,560.333,1051.648,581.667,1051.648,603C1051.648,624.333,1051.648,645.667,1051.648,661.833C1051.648,678,1051.648,689,1051.648,694.5L1051.648,700"/><path marker-end="url(#my-svg_flowchart-v2-pointEnd)" style="" class="edge-thickness-normal edge-pattern-solid edge-thickness-normal edge-pattern-solid flowchart-link" id="L_G_M_0" d="M1099.393,270L1110.297,276.167C1121.202,282.333,1143.011,294.667,1153.916,306.333C1164.82,318,1164.82,329,1164.82,334.5L1164.82,340"/><path marker-end="url(#my-svg_flowchart-v2-pointEnd)" style="" class="edge-thickness-normal edge-pattern-solid edge-thickness-normal edge-pattern-solid flowchart-link" id="L_H_N_0" d="M750.377,398L761.195,402.167C772.012,406.333,793.647,414.667,804.464,427.5C815.281,440.333,815.281,457.667,815.281,477C815.281,496.333,815.281,517.667,815.281,539C815.281,560.333,815.281,581.667,815.281,603C815.281,624.333,815.281,645.667,815.281,661.833C815.281,678,815.281,689,815.281,694.5L815.281,700"/><path marker-end="url(#my-svg_flowchart-v2-pointEnd)" style="" class="edge-thickness-normal edge-pattern-solid edge-thickness-normal edge-pattern-solid flowchart-link" id="L_I_O_0" d="M570.236,502L571.927,508.167C573.618,514.333,577.001,526.667,578.692,543.5C580.383,560.333,580.383,581.667,580.383,603C580.383,624.333,580.383,645.667,580.383,661.833C580.383,678,580.383,689,580.383,694.5L580.383,700"/><path marker-end="url(#my-svg_flowchart-v2-pointEnd)" style="" class="edge-thickness-normal edge-pattern-solid edge-thickness-normal edge-pattern-solid flowchart-link" id="L_J_P_0" d="M278.628,630L291.146,636.167C303.663,642.333,328.699,654.667,341.217,666.333C353.734,678,353.734,689,353.734,694.5L353.734,700"/><path marker-end="url(#my-svg_flowchart-v2-pointEnd)" style="" class="edge-thickness-normal edge-pattern-solid edge-thickness-normal edge-pattern-solid flowchart-link" id="L_K_Q_0" d="M109.008,758L109.008,762.167C109.008,766.333,109.008,774.667,190.339,786.109C271.669,797.552,434.331,812.103,515.662,819.379L596.992,826.655"/><path marker-end="url(#my-svg_flowchart-v2-pointEnd)" style="" class="edge-thickness-normal edge-pattern-solid edge-thickness-normal edge-pattern-solid flowchart-link" id="L_D_Q_0" d="M1273.877,166L1274.563,170.167C1275.249,174.333,1276.621,182.667,1277.306,195.5C1277.992,208.333,1277.992,225.667,1277.992,245C1277.992,264.333,1277.992,285.667,1277.992,307C1277.992,328.333,1277.992,349.667,1277.992,369C1277.992,388.333,1277.992,405.667,1277.992,423C1277.992,440.333,1277.992,457.667,1277.992,477C1277.992,496.333,1277.992,517.667,1277.992,539C1277.992,560.333,1277.992,581.667,1277.992,603C1277.992,624.333,1277.992,645.667,1277.992,667C1277.992,688.333,1277.992,709.667,1277.992,729C1277.992,748.333,1277.992,765.667,1195.589,781.624C1113.185,797.582,948.378,812.164,865.974,819.455L783.57,826.746"/><path marker-end="url(#my-svg_flowchart-v2-pointEnd)" style="" class="edge-thickness-normal edge-pattern-solid edge-thickness-normal edge-pattern-solid flowchart-link" id="L_L_Q_0" d="M1051.648,758L1051.648,762.167C1051.648,766.333,1051.648,774.667,1006.965,785.263C962.281,795.86,872.913,808.72,828.229,815.15L783.545,821.58"/><path marker-end="url(#my-svg_flowchart-v2-pointEnd)" style="" class="edge-thickness-normal edge-pattern-solid edge-thickness-normal edge-pattern-solid flowchart-link" id="L_N_Q_0" d="M815.281,758L815.281,762.167C815.281,766.333,815.281,774.667,805.881,782.744C796.48,790.821,777.679,798.642,768.279,802.553L758.878,806.464"/><path marker-end="url(#my-svg_flowchart-v2-pointEnd)" style="" class="edge-thickness-normal edge-pattern-solid edge-thickness-normal edge-pattern-solid flowchart-link" id="L_O_Q_0" d="M580.383,758L580.383,762.167C580.383,766.333,580.383,774.667,588.586,782.715C596.79,790.763,613.196,798.526,621.4,802.408L629.603,806.289"/><path marker-end="url(#my-svg_flowchart-v2-pointEnd)" style="" class="edge-thickness-normal edge-pattern-solid edge-thickness-normal edge-pattern-solid flowchart-link" id="L_P_Q_0" d="M353.734,758L353.734,762.167C353.734,766.333,353.734,774.667,394.283,785.098C434.831,795.53,515.927,808.06,556.475,814.326L597.023,820.591"/><path marker-end="url(#my-svg_flowchart-v2-pointEnd)" style="" class="edge-thickness-normal edge-pattern-solid edge-thickness-normal edge-pattern-solid flowchart-link" id="L_Q_R_0" d="M629.369,862L619.969,866.167C610.569,870.333,591.769,878.667,582.369,886.333C572.969,894,572.969,901,572.969,904.5L572.969,908"/><path marker-end="url(#my-svg_flowchart-v2-pointEnd)" style="" class="edge-thickness-normal edge-pattern-solid edge-thickness-normal edge-pattern-solid flowchart-link" id="L_Q_S_0" d="M751.194,862L760.594,866.167C769.994,870.333,788.794,878.667,798.194,886.333C807.594,894,807.594,901,807.594,904.5L807.594,908"/><path marker-end="url(#my-svg_flowchart-v2-pointEnd)" style="" class="edge-thickness-normal edge-pattern-solid edge-thickness-normal edge-pattern-solid flowchart-link" id="L_R_T_0" d="M572.969,966L572.969,970.167C572.969,974.333,572.969,982.667,572.969,990.333C572.969,998,572.969,1005,572.969,1008.5L572.969,1012"/><path marker-end="url(#my-svg_flowchart-v2-pointEnd)" style="" class="edge-thickness-normal edge-pattern-solid edge-thickness-normal edge-pattern-solid flowchart-link" id="L_T_U_0" d="M572.969,1070L572.969,1074.167C572.969,1078.333,572.969,1086.667,572.969,1094.333C572.969,1102,572.969,1109,572.969,1112.5L572.969,1116"/><path marker-end="url(#my-svg_flowchart-v2-pointEnd)" style="" class="edge-thickness-normal edge-pattern-solid edge-thickness-normal edge-pattern-solid flowchart-link" id="L_U_V_0" d="M572.969,1174L572.969,1178.167C572.969,1182.333,572.969,1190.667,572.969,1198.333C572.969,1206,572.969,1213,572.969,1216.5L572.969,1220"/><path marker-end="url(#my-svg_flowchart-v2-pointEnd)" style="" class="edge-thickness-normal edge-pattern-solid edge-thickness-normal edge-pattern-solid flowchart-link" id="L_V_W_0" d="M572.969,1278L572.969,1282.167C572.969,1286.333,572.969,1294.667,572.969,1302.333C572.969,1310,572.969,1317,572.969,1320.5L572.969,1324"/><path marker-end="url(#my-svg_flowchart-v2-pointEnd)" style="" class="edge-thickness-normal edge-pattern-solid edge-thickness-normal edge-pattern-solid flowchart-link" id="L_S_X_0" d="M807.594,966L807.594,970.167C807.594,974.333,807.594,982.667,807.594,990.333C807.594,998,807.594,1005,807.594,1008.5L807.594,1012"/><path marker-end="url(#my-svg_flowchart-v2-pointEnd)" style="" class="edge-thickness-normal edge-pattern-solid edge-thickness-normal edge-pattern-solid flowchart-link" id="L_X_Y_0" d="M807.594,1070L807.594,1074.167C807.594,1078.333,807.594,1086.667,807.594,1094.333C807.594,1102,807.594,1109,807.594,1112.5L807.594,1116"/><path marker-end="url(#my-svg_flowchart-v2-pointEnd)" style="" class="edge-thickness-normal edge-pattern-solid edge-thickness-normal edge-pattern-solid flowchart-link" id="L_Y_Z_0" d="M807.594,1174L807.594,1178.167C807.594,1182.333,807.594,1190.667,807.594,1198.333C807.594,1206,807.594,1213,807.594,1216.5L807.594,1220"/><path marker-end="url(#my-svg_flowchart-v2-pointEnd)" style="" class="edge-thickness-normal edge-pattern-solid edge-thickness-normal edge-pattern-solid flowchart-link" id="L_W_AA_0" d="M515.17,1382L506.25,1386.167C497.331,1390.333,479.492,1398.667,470.572,1406.333C461.652,1414,461.652,1421,461.652,1424.5L461.652,1428"/><path marker-end="url(#my-svg_flowchart-v2-pointEnd)" style="" class="edge-thickness-normal edge-pattern-solid edge-thickness-normal edge-pattern-solid flowchart-link" id="L_W_BB_0" d="M630.768,1382L639.687,1386.167C648.607,1390.333,666.446,1398.667,675.366,1406.333C684.285,1414,684.285,1421,684.285,1424.5L684.285,1428"/><path marker-end="url(#my-svg_flowchart-v2-pointEnd)" style="" class="edge-thickness-normal edge-pattern-solid edge-thickness-normal edge-pattern-solid flowchart-link" id="L_Z_CC_0" d="M807.594,1278L807.594,1282.167C807.594,1286.333,807.594,1294.667,807.594,1302.333C807.594,1310,807.594,1317,807.594,1320.5L807.594,1324"/></g><g class="edgeLabels"><g class="edgeLabel"><g transform="translate(0, 0)" class="label"><foreignObject height="0" width="0"><div style="display: table-cell; white-space: nowrap; line-height: 1.5; max-width: 200px; text-align: center;" class="labelBkg" xmlns="http://www.w3.org/1999/xhtml"><span class="edgeLabel"></span></div></foreignObject></g></g><g class="edgeLabel"><g transform="translate(0, 0)" class="label"><foreignObject height="0" width="0"><div style="display: table-cell; white-space: nowrap; line-height: 1.5; max-width: 200px; text-align: center;" class="labelBkg" xmlns="http://www.w3.org/1999/xhtml"><span class="edgeLabel"></span></div></foreignObject></g></g><g class="edgeLabel"><g transform="translate(0, 0)" class="label"><foreignObject height="0" width="0"><div style="display: table-cell; white-space: nowrap; line-height: 1.5; max-width: 200px; text-align: center;" class="labelBkg" xmlns="http://www.w3.org/1999/xhtml"><span class="edgeLabel"></span></div></foreignObject></g></g><g class="edgeLabel"><g transform="translate(0, 0)" class="label"><foreignObject height="0" width="0"><div style="display: table-cell; white-space: nowrap; line-height: 1.5; max-width: 200px; text-align: center;" class="labelBkg" xmlns="http://www.w3.org/1999/xhtml"><span class="edgeLabel"></span></div></foreignObject></g></g><g class="edgeLabel"><g transform="translate(0, 0)" class="label"><foreignObject height="0" width="0"><div style="display: table-cell; white-space: nowrap; line-height: 1.5; max-width: 200px; text-align: center;" class="labelBkg" xmlns="http://www.w3.org/1999/xhtml"><span class="edgeLabel"></span></div></foreignObject></g></g><g class="edgeLabel"><g transform="translate(0, 0)" class="label"><foreignObject height="0" width="0"><div style="display: table-cell; white-space: nowrap; line-height: 1.5; max-width: 200px; text-align: center;" class="labelBkg" xmlns="http://www.w3.org/1999/xhtml"><span class="edgeLabel"></span></div></foreignObject></g></g><g class="edgeLabel"><g transform="translate(0, 0)" class="label"><foreignObject height="0" width="0"><div style="display: table-cell; white-space: nowrap; line-height: 1.5; max-width: 200px; text-align: center;" class="labelBkg" xmlns="http://www.w3.org/1999/xhtml"><span class="edgeLabel"></span></div></foreignObject></g></g><g class="edgeLabel"><g transform="translate(0, 0)" class="label"><foreignObject height="0" width="0"><div style="display: table-cell; white-space: nowrap; line-height: 1.5; max-width: 200px; text-align: center;" class="labelBkg" xmlns="http://www.w3.org/1999/xhtml"><span class="edgeLabel"></span></div></foreignObject></g></g><g class="edgeLabel"><g transform="translate(0, 0)" class="label"><foreignObject height="0" width="0"><div style="display: table-cell; white-space: nowrap; line-height: 1.5; max-width: 200px; text-align: center;" class="labelBkg" xmlns="http://www.w3.org/1999/xhtml"><span class="edgeLabel"></span></div></foreignObject></g></g><g class="edgeLabel"><g transform="translate(0, 0)" class="label"><foreignObject height="0" width="0"><div style="display: table-cell; white-space: nowrap; line-height: 1.5; max-width: 200px; text-align: center;" class="labelBkg" xmlns="http://www.w3.org/1999/xhtml"><span class="edgeLabel"></span></div></foreignObject></g></g><g transform="translate(1051.6484375, 475)" class="edgeLabel"><g transform="translate(-78.5625, -12)" class="label"><foreignObject height="24" width="157.125"><div style="display: table-cell; white-space: nowrap; line-height: 1.5; max-width: 200px; text-align: center;" class="labelBkg" xmlns="http://www.w3.org/1999/xhtml"><span class="edgeLabel"><p>Markdown + Metadata</p></span></div></foreignObject></g></g><g transform="translate(1164.8203125, 307)" class="edgeLabel"><g transform="translate(-61.625, -12)" class="label"><foreignObject height="24" width="123.25"><div style="display: table-cell; white-space: nowrap; line-height: 1.5; max-width: 200px; text-align: center;" class="labelBkg" xmlns="http://www.w3.org/1999/xhtml"><span class="edgeLabel"><p>Wikilinks, Images</p></span></div></foreignObject></g></g><g transform="translate(815.28125, 539)" class="edgeLabel"><g transform="translate(-51.75, -12)" class="label"><foreignObject height="24" width="103.5"><div style="display: table-cell; white-space: nowrap; line-height: 1.5; max-width: 200px; text-align: center;" class="labelBkg" xmlns="http://www.w3.org/1999/xhtml"><span class="edgeLabel"><p>Headings, TOC</p></span></div></foreignObject></g></g><g transform="translate(580.3828125, 603)" class="edgeLabel"><g transform="translate(-65.6015625, -12)" class="label"><foreignObject height="24" width="131.203125"><div style="display: table-cell; white-space: nowrap; line-height: 1.5; max-width: 200px; text-align: center;" class="labelBkg" xmlns="http://www.w3.org/1999/xhtml"><span class="edgeLabel"><p>Figures, Equations</p></span></div></foreignObject></g></g><g transform="translate(353.734375, 667)" class="edgeLabel"><g transform="translate(-99.3125, -12)" class="label"><foreignObject height="24" width="198.625"><div style="display: table-cell; white-space: nowrap; line-height: 1.5; max-width: 200px; text-align: center;" class="labelBkg" xmlns="http://www.w3.org/1999/xhtml"><span class="edgeLabel"><p>Custom Bibliography Engine</p></span></div></foreignObject></g></g><g class="edgeLabel"><g transform="translate(0, 0)" class="label"><foreignObject height="0" width="0"><div style="display: table-cell; white-space: nowrap; line-height: 1.5; max-width: 200px; text-align: center;" class="labelBkg" xmlns="http://www.w3.org/1999/xhtml"><span class="edgeLabel"></span></div></foreignObject></g></g><g transform="translate(1277.9921875, 475)" class="edgeLabel"><g transform="translate(-47.1796875, -12)" class="label"><foreignObject height="24" width="94.359375"><div style="display: table-cell; white-space: nowrap; line-height: 1.5; max-width: 200px; text-align: center;" class="labelBkg" xmlns="http://www.w3.org/1999/xhtml"><span class="edgeLabel"><p>CSS Variables</p></span></div></foreignObject></g></g><g class="edgeLabel"><g transform="translate(0, 0)" class="label"><foreignObject height="0" width="0"><div style="display: table-cell; white-space: nowrap; line-height: 1.5; max-width: 200px; text-align: center;" class="labelBkg" xmlns="http://www.w3.org/1999/xhtml"><span class="edgeLabel"></span></div></foreignObject></g></g><g class="edgeLabel"><g transform="translate(0, 0)" class="label"><foreignObject height="0" width="0"><div style="display: table-cell; white-space: nowrap; line-height: 1.5; max-width: 200px; text-align: center;" class="labelBkg" xmlns="http://www.w3.org/1999/xhtml"><span class="edgeLabel"></span></div></foreignObject></g></g><g class="edgeLabel"><g transform="translate(0, 0)" class="label"><foreignObject height="0" width="0"><div style="display: table-cell; white-space: nowrap; line-height: 1.5; max-width: 200px; text-align: center;" class="labelBkg" xmlns="http://www.w3.org/1999/xhtml"><span class="edgeLabel"></span></div></foreignObject></g></g><g class="edgeLabel"><g transform="translate(0, 0)" class="label"><foreignObject height="0" width="0"><div style="display: table-cell; white-space: nowrap; line-height: 1.5; max-width: 200px; text-align: center;" class="labelBkg" xmlns="http://www.w3.org/1999/xhtml"><span class="edgeLabel"></span></div></foreignObject></g></g><g class="edgeLabel"><g transform="translate(0, 0)" class="label"><foreignObject height="0" width="0"><div style="display: table-cell; white-space: nowrap; line-height: 1.5; max-width: 200px; text-align: center;" class="labelBkg" xmlns="http://www.w3.org/1999/xhtml"><span class="edgeLabel"></span></div></foreignObject></g></g><g class="edgeLabel"><g transform="translate(0, 0)" class="label"><foreignObject height="0" width="0"><div style="display: table-cell; white-space: nowrap; line-height: 1.5; max-width: 200px; text-align: center;" class="labelBkg" xmlns="http://www.w3.org/1999/xhtml"><span class="edgeLabel"></span></div></foreignObject></g></g><g class="edgeLabel"><g transform="translate(0, 0)" class="label"><foreignObject height="0" width="0"><div style="display: table-cell; white-space: nowrap; line-height: 1.5; max-width: 200px; text-align: center;" class="labelBkg" xmlns="http://www.w3.org/1999/xhtml"><span class="edgeLabel"></span></div></foreignObject></g></g><g class="edgeLabel"><g transform="translate(0, 0)" class="label"><foreignObject height="0" width="0"><div style="display: table-cell; white-space: nowrap; line-height: 1.5; max-width: 200px; text-align: center;" class="labelBkg" xmlns="http://www.w3.org/1999/xhtml"><span class="edgeLabel"></span></div></foreignObject></g></g><g class="edgeLabel"><g transform="translate(0, 0)" class="label"><foreignObject height="0" width="0"><div style="display: table-cell; white-space: nowrap; line-height: 1.5; max-width: 200px; text-align: center;" class="labelBkg" xmlns="http://www.w3.org/1999/xhtml"><span class="edgeLabel"></span></div></foreignObject></g></g><g class="edgeLabel"><g transform="translate(0, 0)" class="label"><foreignObject height="0" width="0"><div style="display: table-cell; white-space: nowrap; line-height: 1.5; max-width: 200px; text-align: center;" class="labelBkg" xmlns="http://www.w3.org/1999/xhtml"><span class="edgeLabel"></span></div></foreignObject></g></g><g class="edgeLabel"><g transform="translate(0, 0)" class="label"><foreignObject height="0" width="0"><div style="display: table-cell; white-space: nowrap; line-height: 1.5; max-width: 200px; text-align: center;" class="labelBkg" xmlns="http://www.w3.org/1999/xhtml"><span class="edgeLabel"></span></div></foreignObject></g></g><g class="edgeLabel"><g transform="translate(0, 0)" class="label"><foreignObject height="0" width="0"><div style="display: table-cell; white-space: nowrap; line-height: 1.5; max-width: 200px; text-align: center;" class="labelBkg" xmlns="http://www.w3.org/1999/xhtml"><span class="edgeLabel"></span></div></foreignObject></g></g><g class="edgeLabel"><g transform="translate(0, 0)" class="label"><foreignObject height="0" width="0"><div style="display: table-cell; white-space: nowrap; line-height: 1.5; max-width: 200px; text-align: center;" class="labelBkg" xmlns="http://www.w3.org/1999/xhtml"><span class="edgeLabel"></span></div></foreignObject></g></g><g class="edgeLabel"><g transform="translate(0, 0)" class="label"><foreignObject height="0" width="0"><div style="display: table-cell; white-space: nowrap; line-height: 1.5; max-width: 200px; text-align: center;" class="labelBkg" xmlns="http://www.w3.org/1999/xhtml"><span class="edgeLabel"></span></div></foreignObject></g></g><g class="edgeLabel"><g transform="translate(0, 0)" class="label"><foreignObject height="0" width="0"><div style="display: table-cell; white-space: nowrap; line-height: 1.5; max-width: 200px; text-align: center;" class="labelBkg" xmlns="http://www.w3.org/1999/xhtml"><span class="edgeLabel"></span></div></foreignObject></g></g><g class="edgeLabel"><g transform="translate(0, 0)" class="label"><foreignObject height="0" width="0"><div style="display: table-cell; white-space: nowrap; line-height: 1.5; max-width: 200px; text-align: center;" class="labelBkg" xmlns="http://www.w3.org/1999/xhtml"><span class="edgeLabel"></span></div></foreignObject></g></g></g><g class="nodes"><g transform="translate(1041.6484375, 35)" id="flowchart-A-0" class="node default input"><rect height="54" width="162.53125" y="-27" x="-81.265625" style="fill:#e1f5fe !important" class="basic label-container"/><g transform="translate(-51.265625, -12)" style="" class="label"><rect/><foreignObject height="24" width="102.53125"><div style="display: table-cell; white-space: nowrap; line-height: 1.5; max-width: 200px; text-align: center;" xmlns="http://www.w3.org/1999/xhtml"><span class="nodeLabel"><p>Obsidian Vault</p></span></div></foreignObject></g></g><g transform="translate(1041.6484375, 139)" id="flowchart-B-1" class="node default process"><rect height="54" width="159.265625" y="-27" x="-79.6328125" style="fill:#f3e5f5 !important" class="basic label-container"/><g transform="translate(-49.6328125, -12)" style="" class="label"><rect/><foreignObject height="24" width="99.265625"><div style="display: table-cell; white-space: nowrap; line-height: 1.5; max-width: 200px; text-align: center;" xmlns="http://www.w3.org/1999/xhtml"><span class="nodeLabel"><p>File Discovery</p></span></div></foreignObject></g></g><g transform="translate(1269.43359375, 35)" id="flowchart-C-2" class="node default input"><rect height="54" width="154.75" y="-27" x="-77.375" style="fill:#e1f5fe !important" class="basic label-container"/><g transform="translate(-47.375, -12)" style="" class="label"><rect/><foreignObject height="24" width="94.75"><div style="display: table-cell; white-space: nowrap; line-height: 1.5; max-width: 200px; text-align: center;" xmlns="http://www.w3.org/1999/xhtml"><span class="nodeLabel"><p>TOML Configs</p></span></div></foreignObject></g></g><g transform="translate(1269.43359375, 139)" id="flowchart-D-3" class="node default process"><rect height="54" width="159.1875" y="-27" x="-79.59375" style="fill:#f3e5f5 !important" class="basic label-container"/><g transform="translate(-49.59375, -12)" style="" class="label"><rect/><foreignObject height="24" width="99.1875"><div style="display: table-cell; white-space: nowrap; line-height: 1.5; max-width: 200px; text-align: center;" xmlns="http://www.w3.org/1999/xhtml"><span class="nodeLabel"><p>Config Loader</p></span></div></foreignObject></g></g><g transform="translate(202.8359375, 371)" id="flowchart-E-4" class="node default input"><rect height="54" width="175.203125" y="-27" x="-87.6015625" style="fill:#e1f5fe !important" class="basic label-container"/><g transform="translate(-57.6015625, -12)" style="" class="label"><rect/><foreignObject height="24" width="115.203125"><div style="display: table-cell; white-space: nowrap; line-height: 1.5; max-width: 200px; text-align: center;" xmlns="http://www.w3.org/1999/xhtml"><span class="nodeLabel"><p>references.toml</p></span></div></foreignObject></g></g><g transform="translate(202.8359375, 475)" id="flowchart-F-5" class="node default process"><rect height="54" width="197.640625" y="-27" x="-98.8203125" style="fill:#f3e5f5 !important" class="basic label-container"/><g transform="translate(-68.8203125, -12)" style="" class="label"><rect/><foreignObject height="24" width="137.640625"><div style="display: table-cell; white-space: nowrap; line-height: 1.5; max-width: 200px; text-align: center;" xmlns="http://www.w3.org/1999/xhtml"><span class="nodeLabel"><p>Bibliography Parser</p></span></div></foreignObject></g></g><g transform="translate(1051.6484375, 243)" id="flowchart-G-7" class="node default process"><rect height="54" width="186.546875" y="-27" x="-93.2734375" style="fill:#f3e5f5 !important" class="basic label-container"/><g transform="translate(-63.2734375, -12)" style="" class="label"><rect/><foreignObject height="24" width="126.546875"><div style="display: table-cell; white-space: nowrap; line-height: 1.5; max-width: 200px; text-align: center;" xmlns="http://www.w3.org/1999/xhtml"><span class="nodeLabel"><p>Content Ingestion</p></span></div></foreignObject></g></g><g transform="translate(680.28125, 371)" id="flowchart-H-11" class="node default process"><rect height="54" width="187.609375" y="-27" x="-93.8046875" style="fill:#f3e5f5 !important" class="basic label-container"/><g transform="translate(-63.8046875, -12)" style="" class="label"><rect/><foreignObject height="24" width="127.609375"><div style="display: table-cell; white-space: nowrap; line-height: 1.5; max-width: 200px; text-align: center;" xmlns="http://www.w3.org/1999/xhtml"><span class="nodeLabel"><p>Structure Analysis</p></span></div></foreignObject></g></g><g transform="translate(562.83203125, 475)" id="flowchart-I-13" class="node default process"><rect height="54" width="239.59375" y="-27" x="-119.796875" style="fill:#f3e5f5 !important" class="basic label-container"/><g transform="translate(-89.796875, -12)" style="" class="label"><rect/><foreignObject height="24" width="179.59375"><div style="display: table-cell; white-space: nowrap; line-height: 1.5; max-width: 200px; text-align: center;" xmlns="http://www.w3.org/1999/xhtml"><span class="nodeLabel"><p>Cross-Reference Tracking</p></span></div></foreignObject></g></g><g transform="translate(223.8203125, 603)" id="flowchart-J-15" class="node default process"><rect height="54" width="227.34375" y="-27" x="-113.671875" style="fill:#f3e5f5 !important" class="basic label-container"/><g transform="translate(-83.671875, -12)" style="" class="label"><rect/><foreignObject height="24" width="167.34375"><div style="display: table-cell; white-space: nowrap; line-height: 1.5; max-width: 200px; text-align: center;" xmlns="http://www.w3.org/1999/xhtml"><span class="nodeLabel"><p>Bibliography Processing</p></span></div></foreignObject></g></g><g transform="translate(109.0078125, 731)" id="flowchart-K-19" class="node default process"><rect height="54" width="202.015625" y="-27" x="-101.0078125" style="fill:#f3e5f5 !important" class="basic label-container"/><g transform="translate(-71.0078125, -12)" style="" class="label"><rect/><foreignObject height="24" width="142.015625"><div style="display: table-cell; white-space: nowrap; line-height: 1.5; max-width: 200px; text-align: center;" xmlns="http://www.w3.org/1999/xhtml"><span class="nodeLabel"><p>Document Assembly</p></span></div></foreignObject></g></g><g transform="translate(1051.6484375, 731)" id="flowchart-L-21" class="node default pipeline"><rect height="54" width="168.796875" y="-27" x="-84.3984375" style="fill:#fff3e0 !important" class="basic label-container"/><g transform="translate(-54.3984375, -12)" style="" class="label"><rect/><foreignObject height="24" width="108.796875"><div style="display: table-cell; white-space: nowrap; line-height: 1.5; max-width: 200px; text-align: center;" xmlns="http://www.w3.org/1999/xhtml"><span class="nodeLabel"><p>Parsed Content</p></span></div></foreignObject></g></g><g transform="translate(1164.8203125, 371)" id="flowchart-M-23" class="node default pipeline"><rect height="54" width="156.34375" y="-27" x="-78.171875" style="fill:#fff3e0 !important" class="basic label-container"/><g transform="translate(-48.171875, -12)" style="" class="label"><rect/><foreignObject height="24" width="96.34375"><div style="display: table-cell; white-space: nowrap; line-height: 1.5; max-width: 200px; text-align: center;" xmlns="http://www.w3.org/1999/xhtml"><span class="nodeLabel"><p>Asset Catalog</p></span></div></foreignObject></g></g><g transform="translate(815.28125, 731)" id="flowchart-N-25" class="node default pipeline"><rect height="54" width="203.9375" y="-27" x="-101.96875" style="fill:#fff3e0 !important" class="basic label-container"/><g transform="translate(-71.96875, -12)" style="" class="label"><rect/><foreignObject height="24" width="143.9375"><div style="display: table-cell; white-space: nowrap; line-height: 1.5; max-width: 200px; text-align: center;" xmlns="http://www.w3.org/1999/xhtml"><span class="nodeLabel"><p>Document Structure</p></span></div></foreignObject></g></g><g transform="translate(580.3828125, 731)" id="flowchart-O-27" class="node default pipeline"><rect height="54" width="165.859375" y="-27" x="-82.9296875" style="fill:#fff3e0 !important" class="basic label-container"/><g transform="translate(-52.9296875, -12)" style="" class="label"><rect/><foreignObject height="24" width="105.859375"><div style="display: table-cell; white-space: nowrap; line-height: 1.5; max-width: 200px; text-align: center;" xmlns="http://www.w3.org/1999/xhtml"><span class="nodeLabel"><p>Reference Map</p></span></div></foreignObject></g></g><g transform="translate(353.734375, 731)" id="flowchart-P-29" class="node default pipeline"><rect height="54" width="187.4375" y="-27" x="-93.71875" style="fill:#fff3e0 !important" class="basic label-container"/><g transform="translate(-63.71875, -12)" style="" class="label"><rect/><foreignObject height="24" width="127.4375"><div style="display: table-cell; white-space: nowrap; line-height: 1.5; max-width: 200px; text-align: center;" xmlns="http://www.w3.org/1999/xhtml"><span class="nodeLabel"><p>Citation Database</p></span></div></foreignObject></g></g><g transform="translate(690.28125, 835)" id="flowchart-Q-31" class="node default process"><rect height="54" width="178.609375" y="-27" x="-89.3046875" style="fill:#f3e5f5 !important" class="basic label-container"/><g transform="translate(-59.3046875, -12)" style="" class="label"><rect/><foreignObject height="24" width="118.609375"><div style="display: table-cell; white-space: nowrap; line-height: 1.5; max-width: 200px; text-align: center;" xmlns="http://www.w3.org/1999/xhtml"><span class="nodeLabel"><p>Template Engine</p></span></div></foreignObject></g></g><g transform="translate(572.96875, 939)" id="flowchart-R-43" class="node default process"><rect height="54" width="176.234375" y="-27" x="-88.1171875" style="fill:#f3e5f5 !important" class="basic label-container"/><g transform="translate(-58.1171875, -12)" style="" class="label"><rect/><foreignObject height="24" width="116.234375"><div style="display: table-cell; white-space: nowrap; line-height: 1.5; max-width: 200px; text-align: center;" xmlns="http://www.w3.org/1999/xhtml"><span class="nodeLabel"><p>HTML Generator</p></span></div></foreignObject></g></g><g transform="translate(807.59375, 939)" id="flowchart-S-45" class="node default process"><rect height="54" width="164.75" y="-27" x="-82.375" style="fill:#f3e5f5 !important" class="basic label-container"/><g transform="translate(-52.375, -12)" style="" class="label"><rect/><foreignObject height="24" width="104.75"><div style="display: table-cell; white-space: nowrap; line-height: 1.5; max-width: 200px; text-align: center;" xmlns="http://www.w3.org/1999/xhtml"><span class="nodeLabel"><p>PDF Generator</p></span></div></foreignObject></g></g><g transform="translate(572.96875, 1043)" id="flowchart-T-47" class="node default"><rect height="54" width="197.625" y="-27" x="-98.8125" style="" class="basic label-container"/><g transform="translate(-68.8125, -12)" style="" class="label"><rect/><foreignObject height="24" width="137.625"><div style="display: table-cell; white-space: nowrap; line-height: 1.5; max-width: 200px; text-align: center;" xmlns="http://www.w3.org/1999/xhtml"><span class="nodeLabel"><p>MathJax Processing</p></span></div></foreignObject></g></g><g transform="translate(572.96875, 1147)" id="flowchart-U-49" class="node default"><rect height="54" width="137.765625" y="-27" x="-68.8828125" style="" class="basic label-container"/><g transform="translate(-38.8828125, -12)" style="" class="label"><rect/><foreignObject height="24" width="77.765625"><div style="display: table-cell; white-space: nowrap; line-height: 1.5; max-width: 200px; text-align: center;" xmlns="http://www.w3.org/1999/xhtml"><span class="nodeLabel"><p>CSS Styling</p></span></div></foreignObject></g></g><g transform="translate(572.96875, 1251)" id="flowchart-V-51" class="node default"><rect height="54" width="205.140625" y="-27" x="-102.5703125" style="" class="basic label-container"/><g transform="translate(-72.5703125, -12)" style="" class="label"><rect/><foreignObject height="24" width="145.140625"><div style="display: table-cell; white-space: nowrap; line-height: 1.5; max-width: 200px; text-align: center;" xmlns="http://www.w3.org/1999/xhtml"><span class="nodeLabel"><p>Interactive Features</p></span></div></foreignObject></g></g><g transform="translate(572.96875, 1355)" id="flowchart-W-53" class="node default output"><rect height="54" width="175.59375" y="-27" x="-87.796875" style="fill:#e8f5e8 !important" class="basic label-container"/><g transform="translate(-57.796875, -12)" style="" class="label"><rect/><foreignObject height="24" width="115.59375"><div style="display: table-cell; white-space: nowrap; line-height: 1.5; max-width: 200px; text-align: center;" xmlns="http://www.w3.org/1999/xhtml"><span class="nodeLabel"><p>HTML Document</p></span></div></foreignObject></g></g><g transform="translate(807.59375, 1043)" id="flowchart-X-55" class="node default"><rect height="54" width="171" y="-27" x="-85.5" style="" class="basic label-container"/><g transform="translate(-55.5, -12)" style="" class="label"><rect/><foreignObject height="24" width="111"><div style="display: table-cell; white-space: nowrap; line-height: 1.5; max-width: 200px; text-align: center;" xmlns="http://www.w3.org/1999/xhtml"><span class="nodeLabel"><p>Math Rendering</p></span></div></foreignObject></g></g><g transform="translate(807.59375, 1147)" id="flowchart-Y-57" class="node default"><rect height="54" width="189.9375" y="-27" x="-94.96875" style="" class="basic label-container"/><g transform="translate(-64.96875, -12)" style="" class="label"><rect/><foreignObject height="24" width="129.9375"><div style="display: table-cell; white-space: nowrap; line-height: 1.5; max-width: 200px; text-align: center;" xmlns="http://www.w3.org/1999/xhtml"><span class="nodeLabel"><p>CSS → PDF Engine</p></span></div></foreignObject></g></g><g transform="translate(807.59375, 1251)" id="flowchart-Z-59" class="node default output"><rect height="54" width="164.109375" y="-27" x="-82.0546875" style="fill:#e8f5e8 !important" class="basic label-container"/><g transform="translate(-52.0546875, -12)" style="" class="label"><rect/><foreignObject height="24" width="104.109375"><div style="display: table-cell; white-space: nowrap; line-height: 1.5; max-width: 200px; text-align: center;" xmlns="http://www.w3.org/1999/xhtml"><span class="nodeLabel"><p>PDF Document</p></span></div></foreignObject></g></g><g transform="translate(461.65234375, 1459)" id="flowchart-AA-61" class="node default output"><rect height="54" width="175.78125" y="-27" x="-87.890625" style="fill:#e8f5e8 !important" class="basic label-container"/><g transform="translate(-57.890625, -12)" style="" class="label"><rect/><foreignObject height="24" width="115.78125"><div style="display: table-cell; white-space: nowrap; line-height: 1.5; max-width: 200px; text-align: center;" xmlns="http://www.w3.org/1999/xhtml"><span class="nodeLabel"><p>Web Publication</p></span></div></foreignObject></g></g><g transform="translate(684.28515625, 1459)" id="flowchart-BB-63" class="node default output"><rect height="54" width="169.484375" y="-27" x="-84.7421875" style="fill:#e8f5e8 !important" class="basic label-container"/><g transform="translate(-54.7421875, -12)" style="" class="label"><rect/><foreignObject height="24" width="109.484375"><div style="display: table-cell; white-space: nowrap; line-height: 1.5; max-width: 200px; text-align: center;" xmlns="http://www.w3.org/1999/xhtml"><span class="nodeLabel"><p>Interactive App</p></span></div></foreignObject></g></g><g transform="translate(807.59375, 1355)" id="flowchart-CC-65" class="node default output"><rect height="54" width="180.46875" y="-27" x="-90.234375" style="fill:#e8f5e8 !important" class="basic label-container"/><g transform="translate(-60.234375, -12)" style="" class="label"><rect/><foreignObject height="24" width="120.46875"><div style="display: table-cell; white-space: nowrap; line-height: 1.5; max-width: 200px; text-align: center;" xmlns="http://www.w3.org/1999/xhtml"><span class="nodeLabel"><p>Print/Submission</p></span></div></foreignObject></g></g></g></g></g></svg>